<?xml version="1.0" encoding="UTF-8" standalone="no"?><!DOCTYPE svg PUBLIC "-//W3C//DTD SVG 1.1//EN"
        "http://www.w3.org/Graphics/SVG/1.1/DTD/svg11.dtd">
<svg width="100%" height="100%" viewBox="0 0 2551 526" version="1.1" xmlns="http://www.w3.org/2000/svg"
     xml:space="preserve" xmlns:serif="http://www.serif.com/"
     style="fill-rule:evenodd;clip-rule:evenodd;stroke-linejoin:round;stroke-miterlimit:2;"><g id="Group-3"><g id="Group-2-Copy-2"><path id="GDG-Toulouse" d="M537.374,251.86l112.733,0c0.642,2.546 1.177,5.623 1.606,9.23c0.428,3.608 0.642,7.215 0.642,10.822c0,14.641 -2.248,28.433 -6.745,41.377c-4.496,12.944 -11.562,24.508 -21.197,34.693c-10.278,10.822 -22.59,19.203 -36.936,25.145c-14.346,5.941 -30.726,8.912 -49.14,8.912c-16.701,0 -32.438,-2.971 -47.213,-8.912c-14.774,-5.942 -27.621,-14.217 -38.541,-24.826c-10.92,-10.61 -19.592,-23.182 -26.015,-37.717c-6.424,-14.535 -9.635,-30.396 -9.635,-47.584c0,-17.188 3.211,-33.049 9.635,-47.584c6.423,-14.535 15.095,-27.107 26.015,-37.717c10.92,-10.609 23.767,-18.884 38.541,-24.826c14.775,-5.941 30.512,-8.912 47.213,-8.912c18.629,0 35.276,3.183 49.943,9.549c14.667,6.365 27.247,15.171 37.738,26.417l-29.869,28.964c-7.494,-7.851 -15.845,-13.845 -25.052,-17.983c-9.207,-4.137 -20.234,-6.206 -33.081,-6.206c-10.492,0 -20.448,1.856 -29.869,5.57c-9.422,3.713 -17.665,8.965 -24.731,15.755c-7.066,6.79 -12.686,15.012 -16.862,24.667c-4.175,9.655 -6.263,20.423 -6.263,32.306c0,11.883 2.088,22.651 6.263,32.306c4.176,9.655 9.85,17.877 17.023,24.667c7.173,6.79 15.47,12.042 24.891,15.755c9.421,3.714 19.484,5.57 30.19,5.57c12.205,0 22.536,-1.75 30.994,-5.251c8.458,-3.502 15.684,-8.011 21.679,-13.528c4.283,-3.819 7.976,-8.646 11.081,-14.482c3.105,-5.835 5.513,-12.36 7.226,-19.574l-72.264,0l0,-36.603Zm150.953,-102.806l77.724,0c18.2,0 34.58,2.758 49.14,8.275c14.56,5.517 26.979,13.315 37.257,23.394c10.278,10.079 18.146,22.121 23.606,36.126c5.46,14.004 8.19,29.388 8.19,46.151c0,16.975 -2.73,32.465 -8.19,46.47c-5.46,14.004 -13.328,25.993 -23.606,35.966c-10.278,9.973 -22.697,17.718 -37.257,23.235c-14.56,5.517 -30.94,8.275 -49.14,8.275l-77.724,0l0,-227.892Zm75.797,187.152c12.633,0 23.767,-1.751 33.403,-5.252c9.635,-3.501 17.664,-8.435 24.088,-14.8c6.423,-6.366 11.241,-14.058 14.453,-23.076c3.212,-9.018 4.817,-19.044 4.817,-30.078c0,-11.034 -1.605,-21.06 -4.817,-30.078c-3.212,-9.018 -8.03,-16.71 -14.453,-23.076c-6.424,-6.365 -14.453,-11.299 -24.088,-14.8c-9.636,-3.501 -20.77,-5.252 -33.403,-5.252l-32.439,0l0,146.412l32.439,0Zm264.329,-84.346l112.732,0c0.643,2.546 1.178,5.623 1.606,9.23c0.429,3.608 0.643,7.215 0.643,10.822c0,14.641 -2.248,28.433 -6.745,41.377c-4.496,12.944 -11.562,24.508 -21.198,34.693c-10.277,10.822 -22.589,19.203 -36.935,25.145c-14.346,5.941 -30.726,8.912 -49.14,8.912c-16.701,0 -32.439,-2.971 -47.213,-8.912c-14.774,-5.942 -27.621,-14.217 -38.541,-24.826c-10.92,-10.61 -19.592,-23.182 -26.015,-37.717c-6.424,-14.535 -9.636,-30.396 -9.636,-47.584c0,-17.188 3.212,-33.049 9.636,-47.584c6.423,-14.535 15.095,-27.107 26.015,-37.717c10.92,-10.609 23.767,-18.884 38.541,-24.826c14.774,-5.941 30.512,-8.912 47.213,-8.912c18.628,0 35.276,3.183 49.943,9.549c14.667,6.365 27.246,15.171 37.738,26.417l-29.869,28.964c-7.494,-7.851 -15.845,-13.845 -25.052,-17.983c-9.207,-4.137 -20.234,-6.206 -33.081,-6.206c-10.492,0 -20.448,1.856 -29.87,5.57c-9.421,3.713 -17.664,8.965 -24.73,15.755c-7.066,6.79 -12.687,15.012 -16.862,24.667c-4.175,9.655 -6.263,20.423 -6.263,32.306c0,11.883 2.088,22.651 6.263,32.306c4.175,9.655 9.85,17.877 17.022,24.667c7.173,6.79 15.47,12.042 24.892,15.755c9.421,3.714 19.484,5.57 30.19,5.57c12.205,0 22.536,-1.75 30.994,-5.251c8.457,-3.502 15.684,-8.011 21.679,-13.528c4.283,-3.819 7.976,-8.646 11.081,-14.482c3.105,-5.835 5.513,-12.36 7.226,-19.574l-72.264,0l0,-36.603Zm257.583,125.086l0,-187.152l-64.235,0l0,-40.74l171.829,0l0,40.74l-64.235,0l0,187.152l-43.359,0Zm182.107,-161.052c12.205,0 23.392,2.069 33.563,6.206c10.171,4.138 18.949,9.867 26.337,17.188c7.387,7.32 13.168,16.073 17.343,26.258c4.175,10.185 6.263,21.325 6.263,33.42c0,12.095 -2.088,23.235 -6.263,33.42c-4.175,10.185 -9.956,18.938 -17.343,26.259c-7.388,7.32 -16.166,13.05 -26.337,17.187c-10.171,4.138 -21.358,6.207 -33.563,6.207c-12.205,0 -23.392,-2.069 -33.563,-6.207c-10.17,-4.137 -18.949,-9.867 -26.336,-17.187c-7.387,-7.321 -13.168,-16.074 -17.344,-26.259c-4.175,-10.185 -6.263,-21.325 -6.263,-33.42c0,-12.095 2.088,-23.235 6.263,-33.42c4.176,-10.185 9.957,-18.938 17.344,-26.258c7.387,-7.321 16.166,-13.05 26.336,-17.188c10.171,-4.137 21.358,-6.206 33.563,-6.206Zm0,127.632c5.353,0 10.545,-1.008 15.577,-3.023c5.032,-2.016 9.475,-4.934 13.329,-8.753c3.854,-3.82 6.905,-8.488 9.154,-14.005c2.248,-5.517 3.372,-11.776 3.372,-18.779c0,-7.002 -1.124,-13.262 -3.372,-18.779c-2.249,-5.517 -5.3,-10.185 -9.154,-14.004c-3.854,-3.82 -8.297,-6.737 -13.329,-8.753c-5.032,-2.016 -10.224,-3.024 -15.577,-3.024c-5.567,0 -10.813,1.008 -15.738,3.024c-4.924,2.016 -9.314,4.933 -13.168,8.753c-3.854,3.819 -6.905,8.487 -9.153,14.004c-2.249,5.517 -3.373,11.777 -3.373,18.779c0,7.003 1.124,13.262 3.373,18.779c2.248,5.517 5.299,10.185 9.153,14.005c3.854,3.819 8.244,6.737 13.168,8.753c4.925,2.015 10.171,3.023 15.738,3.023Zm217.758,13.05l-2.57,0c-4.924,7.851 -11.562,14.058 -19.913,18.62c-8.35,4.562 -17.878,6.843 -28.584,6.843c-19.913,0 -34.741,-6.048 -44.483,-18.142c-9.743,-12.095 -14.614,-28.222 -14.614,-48.38l0,-94.531l42.074,0l0,89.439c0,11.246 2.516,19.574 7.548,24.985c5.032,5.411 12.365,8.116 22.001,8.116c5.781,0 10.866,-1.22 15.255,-3.66c4.39,-2.44 8.137,-5.729 11.242,-9.867c3.104,-4.138 5.46,-9.018 7.066,-14.641c1.605,-5.623 2.408,-11.617 2.408,-17.983l0,-76.389l42.074,0l0,155.96l-39.504,0l0,-20.37Zm75.476,20.37l0,-227.892l42.074,0l0,227.892l-42.074,0Zm150.953,-161.052c12.205,0 23.392,2.069 33.563,6.206c10.171,4.138 18.95,9.867 26.337,17.188c7.387,7.32 13.168,16.073 17.343,26.258c4.175,10.185 6.263,21.325 6.263,33.42c0,12.095 -2.088,23.235 -6.263,33.42c-4.175,10.185 -9.956,18.938 -17.343,26.259c-7.387,7.32 -16.166,13.05 -26.337,17.187c-10.171,4.138 -21.358,6.207 -33.563,6.207c-12.205,0 -23.392,-2.069 -33.563,-6.207c-10.17,-4.137 -18.949,-9.867 -26.336,-17.187c-7.387,-7.321 -13.168,-16.074 -17.344,-26.259c-4.175,-10.185 -6.263,-21.325 -6.263,-33.42c0,-12.095 2.088,-23.235 6.263,-33.42c4.176,-10.185 9.957,-18.938 17.344,-26.258c7.387,-7.321 16.166,-13.05 26.336,-17.188c10.171,-4.137 21.358,-6.206 33.563,-6.206Zm0,127.632c5.353,0 10.545,-1.008 15.577,-3.023c5.032,-2.016 9.475,-4.934 13.329,-8.753c3.854,-3.82 6.905,-8.488 9.154,-14.005c2.248,-5.517 3.372,-11.776 3.372,-18.779c0,-7.002 -1.124,-13.262 -3.372,-18.779c-2.249,-5.517 -5.3,-10.185 -9.154,-14.004c-3.854,-3.82 -8.297,-6.737 -13.329,-8.753c-5.032,-2.016 -10.224,-3.024 -15.577,-3.024c-5.567,0 -10.813,1.008 -15.737,3.024c-4.925,2.016 -9.315,4.933 -13.169,8.753c-3.854,3.819 -6.905,8.487 -9.153,14.004c-2.248,5.517 -3.373,11.777 -3.373,18.779c0,7.003 1.125,13.262 3.373,18.779c2.248,5.517 5.299,10.185 9.153,14.005c3.854,3.819 8.244,6.737 13.169,8.753c4.924,2.015 10.17,3.023 15.737,3.023Zm217.758,13.05l-2.57,0c-4.924,7.851 -11.562,14.058 -19.913,18.62c-8.35,4.562 -17.878,6.843 -28.584,6.843c-19.913,0 -34.741,-6.048 -44.483,-18.142c-9.743,-12.095 -14.614,-28.222 -14.614,-48.38l0,-94.531l42.074,0l0,89.439c0,11.246 2.516,19.574 7.548,24.985c5.032,5.411 12.365,8.116 22.001,8.116c5.781,0 10.866,-1.22 15.256,-3.66c4.389,-2.44 8.136,-5.729 11.241,-9.867c3.104,-4.138 5.46,-9.018 7.066,-14.641c1.605,-5.623 2.408,-11.617 2.408,-17.983l0,-76.389l42.075,0l0,155.96l-39.505,0l0,-20.37Zm136.179,25.463c-10.278,0 -19.431,-1.273 -27.461,-3.82c-8.029,-2.546 -14.988,-5.888 -20.876,-10.026c-5.889,-4.137 -10.867,-8.912 -14.935,-14.322c-4.068,-5.411 -7.173,-10.875 -9.314,-16.392l37.577,-15.914c3.64,8.063 8.512,14.057 14.614,17.983c6.102,3.925 12.901,5.888 20.395,5.888c7.708,0 13.81,-1.379 18.307,-4.138c4.496,-2.758 6.744,-6.047 6.744,-9.867c0,-4.243 -1.873,-7.691 -5.62,-10.344c-3.747,-2.652 -10.224,-5.039 -19.431,-7.161l-22.162,-4.775c-4.924,-1.061 -10.009,-2.758 -15.255,-5.092c-5.246,-2.334 -10.01,-5.305 -14.293,-8.912c-4.282,-3.607 -7.815,-7.957 -10.599,-13.05c-2.783,-5.092 -4.175,-11.034 -4.175,-17.824c0,-7.639 1.66,-14.429 4.978,-20.37c3.319,-5.942 7.869,-10.981 13.65,-15.119c5.782,-4.137 12.58,-7.32 20.395,-9.548c7.815,-2.228 16.219,-3.342 25.212,-3.342c14.989,0 28.371,2.917 40.147,8.753c11.777,5.835 20.449,15.118 26.016,27.85l-36.293,14.641c-2.998,-6.154 -7.387,-10.61 -13.168,-13.368c-5.782,-2.759 -11.563,-4.138 -17.344,-4.138c-5.995,0 -11.241,1.22 -15.738,3.66c-4.496,2.44 -6.744,5.57 -6.744,9.39c0,3.607 1.873,6.472 5.62,8.593c3.747,2.122 8.833,4.032 15.256,5.73l24.088,5.729c16.059,3.819 27.996,9.92 35.812,18.301c7.815,8.382 11.723,18.302 11.723,29.76c0,6.79 -1.606,13.262 -4.818,19.415c-3.212,6.154 -7.762,11.618 -13.65,16.392c-5.888,4.774 -12.954,8.541 -21.198,11.299c-8.243,2.759 -17.397,4.138 -27.46,4.138Zm243.451,-42.65c-7.28,12.731 -17.075,23.022 -29.387,30.873c-12.312,7.851 -27.354,11.777 -45.126,11.777c-11.99,0 -23.071,-2.069 -33.241,-6.207c-10.171,-4.137 -19.003,-9.92 -26.497,-17.346c-7.494,-7.427 -13.329,-16.18 -17.504,-26.259c-4.176,-10.079 -6.263,-21.166 -6.263,-33.261c0,-11.246 2.034,-21.908 6.102,-31.987c4.068,-10.08 9.742,-18.885 17.022,-26.418c7.28,-7.533 15.898,-13.527 25.855,-17.983c9.957,-4.456 20.93,-6.684 32.921,-6.684c12.633,0 23.874,2.069 33.723,6.206c9.85,4.138 18.093,9.867 24.731,17.188c6.637,7.32 11.669,15.967 15.095,25.94c3.426,9.973 5.139,20.795 5.139,32.465l0,3.82c-0.214,1.273 -0.321,2.44 -0.321,3.501c-0.214,1.061 -0.322,2.228 -0.322,3.501l-118.514,0c0.857,6.366 2.623,11.829 5.3,16.392c2.676,4.562 5.995,8.381 9.956,11.458c3.961,3.077 8.297,5.305 13.008,6.684c4.711,1.379 9.528,2.069 14.453,2.069c9.635,0 17.611,-2.175 23.927,-6.525c6.317,-4.35 11.295,-9.814 14.935,-16.392l35.008,17.188Zm-38.22,-60.475c-0.214,-2.758 -1.124,-5.835 -2.73,-9.23c-1.605,-3.395 -3.961,-6.578 -7.065,-9.549c-3.105,-2.97 -6.959,-5.41 -11.563,-7.32c-4.603,-1.91 -10.117,-2.865 -16.54,-2.865c-8.993,0 -16.916,2.547 -23.767,7.639c-6.852,5.093 -11.67,12.201 -14.453,21.325l76.118,0Z" style="fill:#fff;"/></g><g
        id="Group-6"><g id="Group-5"><g id="path2895"><path id="Mask" d="M214.944,330.045l-112.842,182.592l56.991,0c13.487,0 30.245,-9.221 37.203,-20.539l48.004,-77.808c5.667,-11.418 5.471,-28.015 -1.002,-38.539l-28.354,-45.706Z" style="fill:#fac740;fill-rule:nonzero;"/><path
        d="M-136.987,261.377c15.051,-11.475 39.605,-36.009 46.307,-77.515c-11.01,0.012 -19.301,-8.07 -19.301,-18.038c0,-9.967 8.291,-18.05 18.517,-18.05c10.225,0 18.516,8.083 18.516,18.05c0,5.871 -2.912,11.119 -7.361,14.415c14.439,12.309 57.343,44.551 120.078,53.38c-9.009,-61.172 -42.093,-103.01 -54.724,-117.088c-3.381,4.337 -8.765,7.176 -14.787,7.176c-10.225,0 -18.516,-8.083 -18.516,-18.05c0,-9.968 8.291,-18.05 18.516,-18.05c10.225,0 18.516,8.082 18.516,18.05c42.565,-5.769 67.732,-29.705 79.504,-44.376c-6.58,-2.769 -11.2,-9.164 -11.2,-16.593c0,-9.968 8.29,-18.05 18.517,-18.05c10.329,0 18.619,8.082 18.619,18.05c0,7.429 -4.619,13.824 -11.199,16.593c11.771,14.671 36.938,38.607 79.516,45.139c-0.012,-10.731 8.278,-18.813 18.505,-18.813c10.226,0 18.516,8.082 18.516,18.05c0,9.967 -8.29,18.05 -18.516,18.05c-6.022,0 -11.406,-2.839 -14.788,-7.176c-12.629,14.078 -45.716,55.916 -54.765,117.088c62.776,-8.83 105.679,-41.07 120.12,-53.38c-4.448,-3.296 -7.361,-8.544 -7.361,-14.415c0,-9.967 8.29,-18.05 18.516,-18.05c10.226,0 18.516,8.083 18.516,18.05c0,9.968 -8.29,18.05 -18.516,18.05c5.919,41.494 30.471,66.027 45.524,77.503c2.837,-6.414 9.399,-10.917 17.021,-10.917c10.225,0 18.517,8.081 18.517,18.049c0,9.968 -8.292,18.05 -18.517,18.05c-7.622,0 -14.184,-4.503 -17.021,-10.918c-15.053,11.475 -39.605,36.009 -46.308,77.515c11.01,-0.012 19.3,8.071 19.3,18.038c0,9.968 -8.29,18.05 -18.516,18.05c-10.226,0 -18.516,-8.082 -18.516,-18.05c0,-5.87 2.913,-11.118 7.361,-14.415c-14.44,-12.309 -57.343,-44.548 -120.078,-53.378c9.007,61.169 42.094,103.011 54.723,117.087c3.382,-4.337 8.766,-7.176 14.788,-7.176c10.226,0 18.516,8.083 18.516,18.05c0,9.968 -8.29,18.05 -18.516,18.05c-10.227,0 -18.517,-8.082 -18.517,-18.05c-42.566,5.769 -67.732,29.704 -79.504,44.376c6.579,2.768 11.199,9.163 11.199,16.593c0,9.968 -8.29,18.05 -18.517,18.05c-10.329,0 -18.619,-8.082 -18.619,-18.05c0,-7.43 4.619,-13.825 11.2,-16.593c-11.772,-14.672 -36.94,-38.607 -79.517,-45.141c0.013,10.733 -8.278,18.815 -18.503,18.815c-10.225,0 -18.516,-8.082 -18.516,-18.05c0,-9.967 8.291,-18.05 18.516,-18.05c6.022,0 11.406,2.839 14.787,7.176c12.631,-14.076 45.715,-55.918 54.765,-117.087c-62.775,8.831 -105.679,41.069 -120.119,53.378c4.449,3.297 7.361,8.545 7.361,14.415c0,9.968 -8.291,18.05 -18.516,18.05c-10.226,0 -18.517,-8.082 -18.517,-18.05c0,-9.967 8.291,-18.05 18.517,-18.05c-5.918,-41.494 -30.472,-66.027 -45.523,-77.503c-2.839,6.414 -9.4,10.918 -17.022,10.918c-10.225,0 -18.516,-8.082 -18.516,-18.05c0,-9.968 8.291,-18.049 18.516,-18.049c7.622,-0.001 14.183,4.502 17.022,10.917Zm61.982,61.684c41.828,-34.367 107.083,-42.089 139.696,-43.741c-1.907,31.833 -9.863,95.293 -45.058,135.996c0,0 29.472,6.45 56.023,34.387c26.583,-27.95 56.001,-34.387 56.001,-34.387c-35.194,-40.703 -43.15,-104.163 -44.864,-136.008c32.419,1.664 97.675,9.386 139.504,43.752c0,0 6.606,-28.688 35.212,-54.554c-28.594,-25.795 -35.212,-54.547 -35.212,-54.547c-41.829,34.367 -107.085,42.089 -139.697,43.741c1.907,-31.83 9.863,-95.292 45.058,-135.996c0,0 -29.419,-6.438 -55.948,-34.309c-26.606,27.859 -56.077,34.309 -56.077,34.309c35.194,40.704 43.151,104.166 44.865,136.008c-32.421,-1.664 -97.675,-9.386 -139.503,-43.753c0,0 -6.607,28.689 -35.213,54.551c28.603,25.849 35.213,54.551 35.213,54.551Z"
        style="fill:#fff;fill-opacity:0.5;fill-rule:nonzero;"/></g><g id="path28951" serif:id="path2895"><path id="Mask1" serif:id="Mask" d="M163.363,246.868c6.956,11.279 6.956,29.745 0,41.066l-126.734,206.416c-4.892,10.201 0.195,18.289 12.77,18.289l52.703,0l112.842,-182.592l-51.581,-83.179Z" style="fill:#099f57;fill-rule:nonzero;"/>
    <path d="M-136.987,261.377c15.051,-11.475 39.605,-36.009 46.307,-77.515c-11.01,0.012 -19.301,-8.07 -19.301,-18.038c0,-9.967 8.291,-18.05 18.517,-18.05c10.225,0 18.516,8.083 18.516,18.05c0,5.871 -2.912,11.119 -7.361,14.415c14.439,12.309 57.343,44.551 120.078,53.38c-9.009,-61.172 -42.093,-103.01 -54.724,-117.088c-3.381,4.337 -8.765,7.176 -14.787,7.176c-10.225,0 -18.516,-8.083 -18.516,-18.05c0,-9.968 8.291,-18.05 18.516,-18.05c10.225,0 18.516,8.082 18.516,18.05c42.565,-5.769 67.732,-29.705 79.504,-44.376c-6.58,-2.769 -11.2,-9.164 -11.2,-16.593c0,-9.968 8.29,-18.05 18.517,-18.05c10.329,0 18.619,8.082 18.619,18.05c0,7.429 -4.619,13.824 -11.199,16.593c11.771,14.671 36.938,38.607 79.516,45.139c-0.012,-10.731 8.278,-18.813 18.505,-18.813c10.226,0 18.516,8.082 18.516,18.05c0,9.967 -8.29,18.05 -18.516,18.05c-6.022,0 -11.406,-2.839 -14.788,-7.176c-12.629,14.078 -45.716,55.916 -54.765,117.088c62.776,-8.83 105.679,-41.07 120.12,-53.38c-4.448,-3.296 -7.361,-8.544 -7.361,-14.415c0,-9.967 8.29,-18.05 18.516,-18.05c10.226,0 18.516,8.083 18.516,18.05c0,9.968 -8.29,18.05 -18.516,18.05c5.919,41.494 30.471,66.027 45.524,77.503c2.837,-6.414 9.399,-10.917 17.021,-10.917c10.225,0 18.517,8.081 18.517,18.049c0,9.968 -8.292,18.05 -18.517,18.05c-7.622,0 -14.184,-4.503 -17.021,-10.918c-15.053,11.475 -39.605,36.009 -46.308,77.515c11.01,-0.012 19.3,8.071 19.3,18.038c0,9.968 -8.29,18.05 -18.516,18.05c-10.226,0 -18.516,-8.082 -18.516,-18.05c0,-5.87 2.913,-11.118 7.361,-14.415c-14.44,-12.309 -57.343,-44.548 -120.078,-53.378c9.007,61.169 42.094,103.011 54.723,117.087c3.382,-4.337 8.766,-7.176 14.788,-7.176c10.226,0 18.516,8.083 18.516,18.05c0,9.968 -8.29,18.05 -18.516,18.05c-10.227,0 -18.517,-8.082 -18.517,-18.05c-42.566,5.769 -67.732,29.704 -79.504,44.376c6.579,2.768 11.199,9.163 11.199,16.593c0,9.968 -8.29,18.05 -18.517,18.05c-10.329,0 -18.619,-8.082 -18.619,-18.05c0,-7.43 4.619,-13.825 11.2,-16.593c-11.772,-14.672 -36.94,-38.607 -79.517,-45.141c0.013,10.733 -8.278,18.815 -18.503,18.815c-10.225,0 -18.516,-8.082 -18.516,-18.05c0,-9.967 8.291,-18.05 18.516,-18.05c6.022,0 11.406,2.839 14.787,7.176c12.631,-14.076 45.715,-55.918 54.765,-117.087c-62.775,8.831 -105.679,41.069 -120.119,53.378c4.449,3.297 7.361,8.545 7.361,14.415c0,9.968 -8.291,18.05 -18.516,18.05c-10.226,0 -18.517,-8.082 -18.517,-18.05c0,-9.967 8.291,-18.05 18.517,-18.05c-5.918,-41.494 -30.472,-66.027 -45.523,-77.503c-2.839,6.414 -9.4,10.918 -17.022,10.918c-10.225,0 -18.516,-8.082 -18.516,-18.05c0,-9.968 8.291,-18.049 18.516,-18.049c7.622,-0.001 14.183,4.502 17.022,10.917Zm61.982,61.684c41.828,-34.367 107.083,-42.089 139.696,-43.741c-1.907,31.833 -9.863,95.293 -45.058,135.996c0,0 29.472,6.45 56.023,34.387c26.583,-27.95 56.001,-34.387 56.001,-34.387c-35.194,-40.703 -43.15,-104.163 -44.864,-136.008c32.419,1.664 97.675,9.386 139.504,43.752c0,0 6.606,-28.688 35.212,-54.554c-28.594,-25.795 -35.212,-54.547 -35.212,-54.547c-41.829,34.367 -107.085,42.089 -139.697,43.741c1.907,-31.83 9.863,-95.292 45.058,-135.996c0,0 -29.419,-6.438 -55.948,-34.309c-26.606,27.859 -56.077,34.309 -56.077,34.309c35.194,40.704 43.151,104.166 44.865,136.008c-32.421,-1.664 -97.675,-9.386 -139.503,-43.753c0,0 -6.607,28.689 -35.213,54.551c28.603,25.849 35.213,54.551 35.213,54.551Z"
          style="fill:#fff;fill-opacity:0.5;fill-rule:nonzero;"/></g><g id="path28952" serif:id="path2895"><path id="Mask2" serif:id="Mask" d="M49.399,22.126c-13.54,0 -18.916,9.254 -11.958,20.528l205.857,333.099c6.473,10.525 6.669,27.119 1.002,38.54l50.049,-81.146l-192.215,-311.021l-52.735,0Z" style="fill:#4486f8;fill-rule:nonzero;"/>
    <path d="M-136.987,261.377c15.051,-11.475 39.605,-36.009 46.307,-77.515c-11.01,0.012 -19.301,-8.07 -19.301,-18.038c0,-9.967 8.291,-18.05 18.517,-18.05c10.225,0 18.516,8.083 18.516,18.05c0,5.871 -2.912,11.119 -7.361,14.415c14.439,12.309 57.343,44.551 120.078,53.38c-9.009,-61.172 -42.093,-103.01 -54.724,-117.088c-3.381,4.337 -8.765,7.176 -14.787,7.176c-10.225,0 -18.516,-8.083 -18.516,-18.05c0,-9.968 8.291,-18.05 18.516,-18.05c10.225,0 18.516,8.082 18.516,18.05c42.565,-5.769 67.732,-29.705 79.504,-44.376c-6.58,-2.769 -11.2,-9.164 -11.2,-16.593c0,-9.968 8.29,-18.05 18.517,-18.05c10.329,0 18.619,8.082 18.619,18.05c0,7.429 -4.619,13.824 -11.199,16.593c11.771,14.671 36.938,38.607 79.516,45.139c-0.012,-10.731 8.278,-18.813 18.505,-18.813c10.226,0 18.516,8.082 18.516,18.05c0,9.967 -8.29,18.05 -18.516,18.05c-6.022,0 -11.406,-2.839 -14.788,-7.176c-12.629,14.078 -45.716,55.916 -54.765,117.088c62.776,-8.83 105.679,-41.07 120.12,-53.38c-4.448,-3.296 -7.361,-8.544 -7.361,-14.415c0,-9.967 8.29,-18.05 18.516,-18.05c10.226,0 18.516,8.083 18.516,18.05c0,9.968 -8.29,18.05 -18.516,18.05c5.919,41.494 30.471,66.027 45.524,77.503c2.837,-6.414 9.399,-10.917 17.021,-10.917c10.225,0 18.517,8.081 18.517,18.049c0,9.968 -8.292,18.05 -18.517,18.05c-7.622,0 -14.184,-4.503 -17.021,-10.918c-15.053,11.475 -39.605,36.009 -46.308,77.515c11.01,-0.012 19.3,8.071 19.3,18.038c0,9.968 -8.29,18.05 -18.516,18.05c-10.226,0 -18.516,-8.082 -18.516,-18.05c0,-5.87 2.913,-11.118 7.361,-14.415c-14.44,-12.309 -57.343,-44.548 -120.078,-53.378c9.007,61.169 42.094,103.011 54.723,117.087c3.382,-4.337 8.766,-7.176 14.788,-7.176c10.226,0 18.516,8.083 18.516,18.05c0,9.968 -8.29,18.05 -18.516,18.05c-10.227,0 -18.517,-8.082 -18.517,-18.05c-42.566,5.769 -67.732,29.704 -79.504,44.376c6.579,2.768 11.199,9.163 11.199,16.593c0,9.968 -8.29,18.05 -18.517,18.05c-10.329,0 -18.619,-8.082 -18.619,-18.05c0,-7.43 4.619,-13.825 11.2,-16.593c-11.772,-14.672 -36.94,-38.607 -79.517,-45.141c0.013,10.733 -8.278,18.815 -18.503,18.815c-10.225,0 -18.516,-8.082 -18.516,-18.05c0,-9.967 8.291,-18.05 18.516,-18.05c6.022,0 11.406,2.839 14.787,7.176c12.631,-14.076 45.715,-55.918 54.765,-117.087c-62.775,8.831 -105.679,41.069 -120.119,53.378c4.449,3.297 7.361,8.545 7.361,14.415c0,9.968 -8.291,18.05 -18.516,18.05c-10.226,0 -18.517,-8.082 -18.517,-18.05c0,-9.967 8.291,-18.05 18.517,-18.05c-5.918,-41.494 -30.472,-66.027 -45.523,-77.503c-2.839,6.414 -9.4,10.918 -17.022,10.918c-10.225,0 -18.516,-8.082 -18.516,-18.05c0,-9.968 8.291,-18.049 18.516,-18.049c7.622,-0.001 14.183,4.502 17.022,10.917Zm61.982,61.684c41.828,-34.367 107.083,-42.089 139.696,-43.741c-1.907,31.833 -9.863,95.293 -45.058,135.996c0,0 29.472,6.45 56.023,34.387c26.583,-27.95 56.001,-34.387 56.001,-34.387c-35.194,-40.703 -43.15,-104.163 -44.864,-136.008c32.419,1.664 97.675,9.386 139.504,43.752c0,0 6.606,-28.688 35.212,-54.554c-28.594,-25.795 -35.212,-54.547 -35.212,-54.547c-41.829,34.367 -107.085,42.089 -139.697,43.741c1.907,-31.83 9.863,-95.292 45.058,-135.996c0,0 -29.419,-6.438 -55.948,-34.309c-26.606,27.859 -56.077,34.309 -56.077,34.309c35.194,40.704 43.151,104.166 44.865,136.008c-32.421,-1.664 -97.675,-9.386 -139.503,-43.753c0,0 -6.607,28.689 -35.213,54.551c28.603,25.849 35.213,54.551 35.213,54.551Z"
          style="fill:#fff;fill-opacity:0.5;fill-rule:nonzero;"/></g><g id="path28953" serif:id="path2895"><path id="Mask3" serif:id="Mask" d="M322.203,246.868l-125.907,-204.214c-6.961,-11.277 -23.718,-20.528 -37.203,-20.528l-56.959,0l192.215,311.023l27.856,-45.213c6.966,-11.323 6.966,-29.791 -0.002,-41.068Z" style="fill:#dc463b;fill-rule:nonzero;"/>
    <path d="M-136.987,261.377c15.051,-11.475 39.605,-36.009 46.307,-77.515c-11.01,0.012 -19.301,-8.07 -19.301,-18.038c0,-9.967 8.291,-18.05 18.517,-18.05c10.225,0 18.516,8.083 18.516,18.05c0,5.871 -2.912,11.119 -7.361,14.415c14.439,12.309 57.343,44.551 120.078,53.38c-9.009,-61.172 -42.093,-103.01 -54.724,-117.088c-3.381,4.337 -8.765,7.176 -14.787,7.176c-10.225,0 -18.516,-8.083 -18.516,-18.05c0,-9.968 8.291,-18.05 18.516,-18.05c10.225,0 18.516,8.082 18.516,18.05c42.565,-5.769 67.732,-29.705 79.504,-44.376c-6.58,-2.769 -11.2,-9.164 -11.2,-16.593c0,-9.968 8.29,-18.05 18.517,-18.05c10.329,0 18.619,8.082 18.619,18.05c0,7.429 -4.619,13.824 -11.199,16.593c11.771,14.671 36.938,38.607 79.516,45.139c-0.012,-10.731 8.278,-18.813 18.505,-18.813c10.226,0 18.516,8.082 18.516,18.05c0,9.967 -8.29,18.05 -18.516,18.05c-6.022,0 -11.406,-2.839 -14.788,-7.176c-12.629,14.078 -45.716,55.916 -54.765,117.088c62.776,-8.83 105.679,-41.07 120.12,-53.38c-4.448,-3.296 -7.361,-8.544 -7.361,-14.415c0,-9.967 8.29,-18.05 18.516,-18.05c10.226,0 18.516,8.083 18.516,18.05c0,9.968 -8.29,18.05 -18.516,18.05c5.919,41.494 30.471,66.027 45.524,77.503c2.837,-6.414 9.399,-10.917 17.021,-10.917c10.225,0 18.517,8.081 18.517,18.049c0,9.968 -8.292,18.05 -18.517,18.05c-7.622,0 -14.184,-4.503 -17.021,-10.918c-15.053,11.475 -39.605,36.009 -46.308,77.515c11.01,-0.012 19.3,8.071 19.3,18.038c0,9.968 -8.29,18.05 -18.516,18.05c-10.226,0 -18.516,-8.082 -18.516,-18.05c0,-5.87 2.913,-11.118 7.361,-14.415c-14.44,-12.309 -57.343,-44.548 -120.078,-53.378c9.007,61.169 42.094,103.011 54.723,117.087c3.382,-4.337 8.766,-7.176 14.788,-7.176c10.226,0 18.516,8.083 18.516,18.05c0,9.968 -8.29,18.05 -18.516,18.05c-10.227,0 -18.517,-8.082 -18.517,-18.05c-42.566,5.769 -67.732,29.704 -79.504,44.376c6.579,2.768 11.199,9.163 11.199,16.593c0,9.968 -8.29,18.05 -18.517,18.05c-10.329,0 -18.619,-8.082 -18.619,-18.05c0,-7.43 4.619,-13.825 11.2,-16.593c-11.772,-14.672 -36.94,-38.607 -79.517,-45.141c0.013,10.733 -8.278,18.815 -18.503,18.815c-10.225,0 -18.516,-8.082 -18.516,-18.05c0,-9.967 8.291,-18.05 18.516,-18.05c6.022,0 11.406,2.839 14.787,7.176c12.631,-14.076 45.715,-55.918 54.765,-117.087c-62.775,8.831 -105.679,41.069 -120.119,53.378c4.449,3.297 7.361,8.545 7.361,14.415c0,9.968 -8.291,18.05 -18.516,18.05c-10.226,0 -18.517,-8.082 -18.517,-18.05c0,-9.967 8.291,-18.05 18.517,-18.05c-5.918,-41.494 -30.472,-66.027 -45.523,-77.503c-2.839,6.414 -9.4,10.918 -17.022,10.918c-10.225,0 -18.516,-8.082 -18.516,-18.05c0,-9.968 8.291,-18.049 18.516,-18.049c7.622,-0.001 14.183,4.502 17.022,10.917Zm61.982,61.684c41.828,-34.367 107.083,-42.089 139.696,-43.741c-1.907,31.833 -9.863,95.293 -45.058,135.996c0,0 29.472,6.45 56.023,34.387c26.583,-27.95 56.001,-34.387 56.001,-34.387c-35.194,-40.703 -43.15,-104.163 -44.864,-136.008c32.419,1.664 97.675,9.386 139.504,43.752c0,0 6.606,-28.688 35.212,-54.554c-28.594,-25.795 -35.212,-54.547 -35.212,-54.547c-41.829,34.367 -107.085,42.089 -139.697,43.741c1.907,-31.83 9.863,-95.292 45.058,-135.996c0,0 -29.419,-6.438 -55.948,-34.309c-26.606,27.859 -56.077,34.309 -56.077,34.309c35.194,40.704 43.151,104.166 44.865,136.008c-32.421,-1.664 -97.675,-9.386 -139.503,-43.753c0,0 -6.607,28.689 -35.213,54.551c28.603,25.849 35.213,54.551 35.213,54.551Z"
          style="fill:#fff;fill-opacity:0.5;fill-rule:nonzero;"/></g></g></g></g></svg>