<?xml version="1.0" encoding="UTF-8" standalone="no"?><!DOCTYPE svg PUBLIC "-//W3C//DTD SVG 1.1//EN" "http://www.w3.org/Graphics/SVG/1.1/DTD/svg11.dtd"><svg width="100%" height="100%" viewBox="0 0 493 105" version="1.1" xmlns="http://www.w3.org/2000/svg" xmlns:xlink="http://www.w3.org/1999/xlink" xml:space="preserve" xmlns:serif="http://www.serif.com/" style="fill-rule:evenodd;clip-rule:evenodd;stroke-linejoin:round;stroke-miterlimit:2;"><path d="M158.708,89.003l0,-15.404c0,-1.878 -0.271,-3.295 -0.811,-4.25c-0.54,-0.956 -1.408,-1.435 -2.604,-1.435c-1.646,0 -2.833,0.656 -3.564,1.97c-0.73,1.313 -1.097,3.564 -1.097,6.756l0,12.363l-9.747,0l0,-28.243l7.354,0l1.223,3.489l0.573,0c0.831,-1.33 1.981,-2.327 3.452,-2.991c1.472,-0.664 3.162,-0.997 5.073,-0.997c3.124,0 5.556,0.905 7.292,2.718c1.736,1.812 2.605,4.361 2.605,7.651l0,18.372l-9.749,0l0,0.001Zm25.826,-15.879c1.18,-1.878 2.185,-3.341 3.016,-4.388l6.332,-7.978l10.869,0l-9.796,12.017l10.419,16.228l-11.144,0l-6.182,-10.121l-3.166,2.418l0,7.703l-9.797,0l0,-38.788l9.797,0l0,15.257c0.003,2.561 -0.18,5.118 -0.549,7.652l0.201,0Zm36.87,16.378c-4.703,0 -8.354,-1.251 -10.955,-3.752c-2.602,-2.501 -3.901,-6.062 -3.901,-10.682c0,-4.771 1.205,-8.43 3.615,-10.98c2.409,-2.55 5.85,-3.826 10.319,-3.826c4.254,0 7.541,1.108 9.859,3.327c2.318,2.22 3.477,5.414 3.477,9.585l0,4.338l-17.424,0c0.066,1.578 0.645,2.816 1.732,3.715c1.088,0.897 2.572,1.346 4.45,1.346c1.711,0 3.285,-0.162 4.724,-0.485c1.438,-0.323 2.996,-0.877 4.674,-1.657l0,7.005c-1.492,0.767 -3.087,1.313 -4.736,1.62c-1.63,0.295 -3.575,0.446 -5.834,0.446Zm-0.574,-22.611c-1.146,0 -2.106,0.361 -2.879,1.085c-0.773,0.723 -1.227,1.855 -1.359,3.401l8.376,0c-0.034,-1.361 -0.42,-2.45 -1.159,-3.266c-0.74,-0.811 -1.733,-1.22 -2.979,-1.22Zm14.06,-6.131l10.271,0l4.785,16.202c0.233,0.849 0.392,1.869 0.475,3.066l0.2,0c0.133,-1.147 0.332,-2.152 0.598,-3.017l4.911,-16.253l9.946,0l-11.167,30.037c-1.431,3.822 -3.188,6.522 -5.272,8.103c-2.085,1.578 -4.807,2.368 -8.164,2.368c-1.341,-0.006 -2.677,-0.148 -3.989,-0.424l0,-7.653c0.881,0.2 1.887,0.3 3.018,0.3c0.863,0 1.62,-0.167 2.268,-0.499c0.66,-0.342 1.238,-0.822 1.695,-1.408c0.481,-0.605 0.997,-1.6 1.545,-2.979l-11.12,-27.843Zm104.105,28.243l-1.869,-3.738l-0.2,0c-1.313,1.629 -2.65,2.741 -4.014,3.341c-1.361,0.598 -3.124,0.896 -5.283,0.896c-2.66,0 -4.754,-0.798 -6.282,-2.394c-1.529,-1.596 -2.294,-3.839 -2.294,-6.73c0,-3.008 1.047,-5.247 3.141,-6.718c2.095,-1.471 5.127,-2.298 9.101,-2.479l4.711,-0.149l0,-0.399c0,-2.325 -1.146,-3.488 -3.439,-3.488c-2.061,0 -4.679,0.696 -7.853,2.094l-2.817,-6.432c3.291,-1.695 7.445,-2.543 12.465,-2.543c3.622,0 6.427,0.896 8.412,2.691c1.986,1.795 2.979,4.305 2.979,7.528l0,18.521l-6.758,0l0,-0.001Zm-7.229,-6.382c1.181,0 2.188,-0.374 3.029,-1.121c0.839,-0.748 1.259,-1.721 1.259,-2.917l0,-2.192l-2.243,0.1c-3.207,0.116 -4.812,1.296 -4.812,3.54c0.001,1.727 0.923,2.59 2.767,2.59Zm34.399,-0.822c1.313,0 2.884,-0.323 4.712,-0.973l0,7.104c-1.313,0.564 -2.564,0.969 -3.753,1.209c-1.188,0.24 -2.579,0.361 -4.176,0.361c-3.272,0 -5.633,-0.802 -7.079,-2.405c-1.445,-1.604 -2.169,-4.066 -2.169,-7.392l0,-11.642l-3.414,0l0,-3.964l4.337,-3.065l2.519,-5.933l6.382,0l0,5.657l6.93,0l0,7.305l-6.93,0l0,10.993c0,1.831 0.881,2.745 2.641,2.745Zm22.509,7.703c-4.619,0 -8.122,-1.247 -10.507,-3.738c-2.386,-2.493 -3.577,-6.074 -3.577,-10.744c0,-4.688 1.288,-8.317 3.863,-10.895c2.575,-2.576 6.239,-3.863 10.993,-3.863c3.273,0 6.356,0.715 9.248,2.145l-2.867,7.204c-1.065,-0.473 -2.155,-0.885 -3.266,-1.234c-1.009,-0.309 -2.059,-0.465 -3.115,-0.461c-1.579,0 -2.801,0.615 -3.664,1.845c-0.864,1.229 -1.297,2.967 -1.297,5.211c0,4.521 1.67,6.779 5.011,6.779c2.858,0 5.602,-0.831 8.227,-2.493l0,7.753c-2.51,1.66 -5.525,2.491 -9.049,2.491Zm32.482,-0.499l0,-15.404c0,-3.789 -1.122,-5.685 -3.364,-5.685c-1.596,0 -2.771,0.669 -3.527,2.007c-0.756,1.338 -1.134,3.562 -1.134,6.668l0,12.414l-9.747,0l0,-38.788l9.747,0l0,5.511c0,2.491 -0.134,5.334 -0.398,8.524l0.448,0c0.931,-1.463 2.035,-2.493 3.314,-3.092c1.279,-0.598 2.768,-0.896 4.462,-0.896c3.157,0 5.612,0.909 7.366,2.729c1.753,1.819 2.63,4.366 2.63,7.64l0,18.372l-9.797,0Zm-372.563,-43.566c0.247,-0.016 0.621,0.438 1.122,1.354l11.021,21.017c0.776,1.418 1.4,2.112 1.871,2.088c0.246,-0.016 0.729,-0.886 1.44,-2.611c1.501,-3.625 3.541,-8.629 6.116,-15.009l0.823,-2.05l1.935,3.629c1.64,2.076 3.903,3.356 6.405,3.356c1.25,0 2.44,-0.319 3.523,-0.899l1.194,-0.821l0.606,1.77l2.057,4.039l0.038,1.548c0.063,1.978 0.13,3.629 0.204,4.949c0.136,2.444 0.439,6.105 0.914,10.982c0.474,4.877 0.777,8.526 0.912,10.948c0.039,0.692 -0.267,1.06 -0.917,1.097l-11.905,0.662c-0.65,0.036 -0.997,-0.338 -1.041,-1.123c-0.126,-2.265 -0.231,-5.665 -0.315,-10.204c-0.084,-4.539 -0.188,-7.941 -0.313,-10.206c-0.036,-0.647 -0.156,-0.992 -0.36,-1.024c-0.24,0.146 -1.549,3.694 -3.929,10.645c-1.39,4.071 -2.784,8.14 -4.181,12.209c-0.193,0.529 -0.458,0.848 -0.791,0.956c-0.108,0.028 -0.558,0.063 -1.343,0.107c-1.166,0.064 -1.874,-0.12 -2.123,-0.559c-1.348,-2.396 -3.14,-5.896 -5.375,-10.496c-2.385,-4.859 -4.166,-8.372 -5.344,-10.532c-0.051,-0.108 -0.159,-0.228 -0.323,-0.354c-0.146,0.211 -0.207,0.54 -0.182,0.988c0.123,2.195 0.36,5.488 0.719,9.879c0.357,4.389 0.596,7.682 0.719,9.88c0.043,0.784 -0.249,1.191 -0.876,1.229l-11.232,0.625c-0.448,0.025 -0.729,-0.03 -0.836,-0.172c-0.109,-0.141 -0.175,-0.39 -0.193,-0.749c-0.136,-2.441 -0.223,-6.122 -0.26,-11.035c-0.037,-4.91 -0.123,-8.59 -0.262,-11.032c-0.145,-2.604 -0.526,-7.474 -1.148,-14.612c-0.126,-1.86 -0.381,-4.624 -0.768,-8.291l-0.063,-0.57c-0.047,-0.447 0.411,-0.696 1.375,-0.751c1.233,-0.067 3.081,-0.211 5.543,-0.427c2.463,-0.22 4.31,-0.362 5.543,-0.43Zm269.602,17.989c0.246,5.432 -0.979,9.894 -3.678,13.387c-2.89,3.704 -7.016,5.679 -12.378,5.92c-0.897,0.042 -2.251,0.052 -4.063,0.033c-1.812,-0.021 -3.166,-0.011 -4.063,0.029c-0.965,0.043 -1.429,0.479 -1.394,1.313c0.049,1.032 0.22,2.563 0.514,4.597c0.293,2.032 0.464,3.553 0.509,4.563c0.023,0.517 -0.2,0.783 -0.671,0.806c-1.369,0.063 -3.424,0.115 -6.163,0.161c-2.741,0.045 -4.796,0.099 -6.165,0.16c-0.647,0.027 -0.99,-0.281 -1.02,-0.935c-0.112,-2.488 -0.241,-6.23 -0.391,-11.228c-0.146,-4.996 -0.275,-8.738 -0.39,-11.229c-0.318,-7.044 -0.955,-14.434 -1.911,-22.169l-0.055,-0.469c-0.065,-0.424 0.261,-0.699 0.975,-0.82c1.738,-0.303 5.593,-0.59 11.563,-0.857c3.521,-0.16 6.898,-0.269 10.136,-0.323c5.322,-0.083 9.684,1.395 13.081,4.434c3.473,3.123 5.324,7.332 5.564,12.627Zm-13.402,1.145c-0.236,-5.228 -2.9,-7.727 -7.993,-7.496c-3.59,0.162 -5.465,0.449 -5.626,0.861c-0.146,0.298 -0.105,2.894 0.115,7.784c0.029,0.693 0.104,1.721 0.224,3.073c0.117,1.355 0.191,2.382 0.223,3.075c0.021,0.448 2.05,0.582 6.088,0.399c4.867,-0.217 7.192,-2.783 6.969,-7.696Zm140.699,29.272c-0.077,0.215 -0.199,0.411 -0.356,0.577c-0.176,0.164 -0.388,0.286 -0.618,0.357c-0.266,0.091 -0.596,0.16 -0.988,0.206c-0.395,0.045 -0.894,0.067 -1.498,0.067c-0.751,0 -1.363,-0.036 -1.84,-0.108c-0.477,-0.074 -0.838,-0.185 -1.086,-0.33c-0.247,-0.146 -0.389,-0.334 -0.426,-0.563c-0.037,-0.229 0,-0.499 0.108,-0.811l16.431,-46.127c0.072,-0.237 0.183,-0.436 0.33,-0.591c0.146,-0.155 0.348,-0.278 0.604,-0.37c0.256,-0.092 0.591,-0.16 1.003,-0.206c0.412,-0.046 0.911,-0.069 1.497,-0.069c0.771,0 1.389,0.037 1.854,0.11c0.468,0.073 0.818,0.183 1.058,0.329c0.238,0.146 0.375,0.335 0.412,0.563c0.037,0.229 0.01,0.499 -0.082,0.812l-16.403,46.154Zm43.354,-22.913c0,0.477 -0.02,0.889 -0.055,1.235c-0.028,0.296 -0.079,0.59 -0.152,0.879c-0.047,0.201 -0.13,0.392 -0.246,0.563c-0.087,0.125 -0.206,0.224 -0.344,0.288l-21.072,10.438c-0.256,0.129 -0.477,0.185 -0.659,0.165c-0.183,-0.018 -0.334,-0.118 -0.453,-0.302c-0.119,-0.183 -0.202,-0.453 -0.247,-0.811c-0.05,-0.452 -0.073,-0.906 -0.067,-1.36c0,-0.75 0.014,-1.346 0.041,-1.785c0.014,-0.352 0.064,-0.702 0.149,-1.044c0.073,-0.257 0.174,-0.444 0.304,-0.563c0.128,-0.118 0.303,-0.224 0.521,-0.314l15.824,-7.418l-15.521,-7.198c-0.247,-0.102 -0.482,-0.231 -0.7,-0.385c-0.175,-0.128 -0.308,-0.324 -0.398,-0.591c-0.092,-0.266 -0.15,-0.622 -0.178,-1.071c-0.031,-0.608 -0.045,-1.218 -0.041,-1.827c0,-0.677 0.021,-1.208 0.067,-1.593c0.045,-0.385 0.128,-0.659 0.247,-0.824c0.119,-0.165 0.271,-0.238 0.453,-0.22c0.183,0.018 0.403,0.092 0.659,0.22l21.1,10.522c0.238,0.108 0.427,0.401 0.563,0.879c0.137,0.479 0.205,1.183 0.205,2.117Zm-460.814,11.017c0,0.678 -0.027,1.209 -0.083,1.594c-0.056,0.385 -0.143,0.659 -0.262,0.824c-0.12,0.164 -0.266,0.238 -0.438,0.22c-0.174,-0.019 -0.398,-0.092 -0.673,-0.22l-21.071,-10.495c-0.257,-0.146 -0.444,-0.453 -0.563,-0.92c-0.12,-0.468 -0.179,-1.168 -0.179,-2.102c0,-0.478 0.018,-0.895 0.055,-1.25c0.026,-0.296 0.072,-0.591 0.138,-0.881c0.055,-0.229 0.132,-0.411 0.232,-0.549c0.102,-0.138 0.215,-0.243 0.343,-0.315l21.045,-10.439c0.53,-0.257 0.906,-0.206 1.126,0.151c0.22,0.355 0.329,1.085 0.329,2.184c0,0.751 -0.014,1.348 -0.04,1.786c-0.028,0.439 -0.078,0.787 -0.151,1.044c-0.073,0.257 -0.174,0.439 -0.302,0.549c-0.128,0.11 -0.303,0.221 -0.522,0.33l-15.824,7.418l15.522,7.197c0.274,0.129 0.499,0.257 0.673,0.385c0.174,0.129 0.307,0.325 0.398,0.591c0.091,0.267 0.154,0.623 0.191,1.071c0.043,0.608 0.062,1.217 0.056,1.827Z" style="fill:#fff;fill-rule:nonzero;"/><g><path d="M113.617,51.407c6.6,0.028 13.387,4.412 9.31,4.322c-4.078,-0.09 -3.988,-3.114 -9.211,-3.146c-5.224,-0.026 -5.928,3.61 -9.899,3.563c-3.971,-0.049 3.202,-4.768 9.8,-4.739Zm11.557,-15.556c-5.919,-0.599 -5.44,7.214 -5.312,9.442c1.901,-0.031 8.774,1.959 10.324,0.396c1.981,-2 0.052,-9.327 -5.012,-9.838Zm0.621,8.4c-1.164,0.152 -2.294,-1.152 -2.526,-2.919c-0.229,-1.765 0.524,-3.317 1.688,-3.473c1.163,-0.152 2.294,1.155 2.524,2.919c0.233,1.766 -0.522,3.321 -1.686,3.473Zm-23.906,-8.394c-5.016,0.844 -6.454,8.273 -4.349,10.137c1.647,1.457 8.371,-0.984 10.269,-1.077c-0.017,-2.231 -0.058,-10.047 -5.92,-9.06Zm2.227,5.615c-0.35,1.744 -1.564,2.975 -2.717,2.743c-1.149,-0.229 -1.801,-1.829 -1.45,-3.574c0.348,-1.746 1.563,-2.977 2.715,-2.745c1.15,0.229 1.8,1.83 1.452,3.576Zm31.096,27.787l0.062,0.403c0.074,0.729 0.112,1.469 0.112,2.217c0,9.724 -6.405,17.949 -15.227,20.693l-0.965,0.246l-0.01,0.07c0.112,0.592 0.825,1.115 2.2,1.775c-1.85,-0.272 -3.094,-0.532 -4.022,-0.942l-0.639,-0.409l-0.169,0.023l0.111,0.285c0.411,0.951 0.938,1.438 3.015,2.396c-2.366,0.059 -4.143,-0.562 -5.724,-1.361l-2.145,-1.208l-0.315,-0.016c-10.93,-1.109 -19.455,-10.338 -19.455,-21.558c0,-0.748 0.037,-1.486 0.11,-2.217l0.063,-0.403l0.266,1.747c2.021,9.873 10.761,17.302 21.231,17.302c10.473,0 19.211,-7.429 21.229,-17.302l0.272,-1.741Z" style="fill:#fff;fill-rule:nonzero;"/><path d="M131.844,73.284l0.059,0.108c0.077,0.198 0.125,0.404 0.146,0.614c0.301,3.367 -7.146,6.785 -16.632,7.636c-9.486,0.848 -17.421,-1.193 -17.725,-4.563c-0.019,-0.212 -0.007,-0.425 0.034,-0.633l0.039,-0.116l0.255,0.474c1.853,2.636 8.963,4.104 17.266,3.361c8.301,-0.742 15.04,-3.451 16.393,-6.371l0.165,-0.51Zm15.376,-40.24c-1.216,0.003 -2.412,0.309 -3.479,0.891l-0.507,0.348l-0.24,-1.004c-3.396,-11.65 -12.733,-20.507 -24.23,-22.54l-0.131,-0.017l-0.084,-0.399c-0.007,-1.208 1.291,-2.657 5.615,-4.853c-5.833,0.697 -7.99,2.666 -9.822,4.769l-0.056,0.063l-0.233,-0.451c-1.036,-1.771 -2.461,-3.355 -5.135,-4.313c2.414,2.377 2.881,3.438 2.837,4.423l-0.055,0.427l-0.535,0.021c-12.628,1.111 -23.086,10.388 -26.728,22.87l-0.242,1.004l-0.505,-0.348c-1.068,-0.581 -2.263,-0.887 -3.479,-0.891c-4.938,0 -8.941,5.069 -8.941,11.322c0,6.252 4.003,11.321 8.941,11.321c1.216,-0.003 2.412,-0.309 3.479,-0.891l1.18,-0.811l0.6,1.747c1.518,3.847 3.747,7.374 6.57,10.396l0.354,0.347l0.204,-1.139c0.59,-2.733 1.654,-5.342 3.146,-7.707l0.53,-0.758l-0.729,-0.55c-3.355,-3.14 -5.563,-8.458 -5.563,-14.492c0,-9.65 5.648,-17.478 12.613,-17.478c4.354,0 8.193,3.056 10.459,7.706l0.658,1.68l0.659,-1.68c2.267,-4.649 6.104,-7.706 10.458,-7.706c6.966,0 12.612,7.825 12.612,17.478c0,6.034 -2.205,11.354 -5.561,14.492l-0.729,0.55l0.531,0.758c1.493,2.364 2.558,4.973 3.146,7.707l0.204,1.139l0.354,-0.347c2.824,-3.021 5.053,-6.548 6.57,-10.396l0.599,-1.747l1.18,0.811c1.068,0.581 2.263,0.887 3.479,0.891c4.938,0 8.942,-5.069 8.942,-11.321c0.006,-6.253 -3.997,-11.322 -8.936,-11.322Zm-64.141,15.393c-0.417,0.226 -0.884,0.346 -1.358,0.347c-1.927,0 -3.489,-1.978 -3.489,-4.418c0,-2.44 1.563,-4.418 3.489,-4.418c0.482,0 0.941,0.124 1.358,0.347l0.103,0.071l-0.124,2.638c0,1.129 0.053,2.245 0.158,3.346l0.26,1.815l-0.397,0.272Zm19.861,-29.377c-4.924,2.363 -11.097,7.747 -13.464,13.369c-1.949,2.067 -2.973,-0.516 -2.38,-2.507c1.214,-3.733 5.921,-10.344 12.112,-13.235c2.025,-0.834 4.796,0.005 3.732,2.373Zm42.767,29.724c-0.482,0 -0.941,-0.124 -1.358,-0.347l-0.396,-0.272l0.26,-1.815c0.104,-1.102 0.158,-2.217 0.158,-3.346l-0.125,-2.638l0.103,-0.071c0.417,-0.227 0.884,-0.346 1.358,-0.347c1.927,0 3.487,1.978 3.487,4.418c0,2.44 -1.56,4.418 -3.487,4.418Z" style="fill:#fff;fill-rule:nonzero;"/><path d="M100.777,19.382c0.065,0.095 0.036,0.227 -0.063,0.297c-0.103,0.069 -0.234,0.053 -0.299,-0.04c-0.065,-0.095 -0.035,-0.226 0.063,-0.297c0.1,-0.07 0.235,-0.052 0.299,0.04Zm-1.566,0.901c0.022,0.033 0.034,0.071 0.034,0.11c0,0.067 -0.035,0.13 -0.091,0.166c-0.092,0.063 -0.217,0.046 -0.277,-0.042c-0.063,-0.088 -0.037,-0.212 0.056,-0.277c0.034,-0.025 0.075,-0.039 0.118,-0.039c0.063,0 0.123,0.031 0.16,0.082Zm-1.131,0.975c0.022,0.033 0.034,0.071 0.034,0.111c0,0.067 -0.034,0.13 -0.091,0.166c-0.092,0.064 -0.218,0.045 -0.277,-0.043c-0.063,-0.088 -0.037,-0.212 0.056,-0.277c0.088,-0.064 0.214,-0.045 0.278,0.043Zm-7.096,6.647c0.03,0.036 0.046,0.082 0.046,0.129c0,0.112 -0.092,0.204 -0.204,0.204c-0.072,0 -0.138,-0.038 -0.175,-0.099c-0.019,-0.032 -0.029,-0.068 -0.029,-0.105c0,-0.112 0.092,-0.204 0.204,-0.204c0.061,0 0.119,0.027 0.158,0.075Zm-0.75,1.439c0.055,0.074 0.023,0.187 -0.063,0.247c-0.088,0.063 -0.203,0.053 -0.256,-0.023c-0.055,-0.076 -0.024,-0.188 0.063,-0.249c0.088,-0.062 0.203,-0.05 0.256,0.025Zm-0.546,1.416c0.044,0.063 0.021,0.157 -0.057,0.212c-0.076,0.053 -0.173,0.045 -0.217,-0.02c-0.044,-0.063 -0.021,-0.158 0.057,-0.21c0.076,-0.053 0.174,-0.044 0.217,0.018Zm7.859,-8.654c-2.135,1.355 -4.232,3.603 -5.598,5.149c-0.227,0.208 -1.967,-1.805 -1.84,-1.928c0.576,-1.119 2.988,-4.096 5.509,-5.681c0.249,-0.153 2.091,2.316 1.929,2.46Zm-7.863,6.044c0.03,0.036 0.046,0.082 0.046,0.13c0,0.111 -0.092,0.204 -0.204,0.204c-0.072,0 -0.14,-0.039 -0.176,-0.102c-0.024,-0.034 -0.037,-0.075 -0.037,-0.116c0,-0.066 0.033,-0.128 0.087,-0.166c0.092,-0.063 0.219,-0.041 0.284,0.05Zm-0.726,1.448c0.053,0.074 0.023,0.187 -0.063,0.249c-0.088,0.061 -0.203,0.051 -0.256,-0.025c-0.053,-0.075 -0.024,-0.187 0.064,-0.249c0.088,-0.062 0.202,-0.051 0.255,0.025Zm-0.645,1.615c0.043,0.063 0.02,0.157 -0.058,0.21c-0.076,0.055 -0.173,0.045 -0.217,-0.019c-0.044,-0.064 -0.021,-0.156 0.057,-0.209c0.077,-0.052 0.174,-0.045 0.218,0.018Zm1.041,-4.302c0.064,0.092 0.041,0.219 -0.05,0.284c-0.092,0.063 -0.219,0.041 -0.284,-0.05c-0.063,-0.092 -0.041,-0.219 0.049,-0.285c0.034,-0.024 0.075,-0.037 0.117,-0.037c0.067,0 0.13,0.033 0.168,0.088Zm-0.761,1.472c0.054,0.076 0.025,0.188 -0.063,0.249c-0.088,0.063 -0.201,0.053 -0.255,-0.022c-0.053,-0.076 -0.022,-0.188 0.063,-0.249c0.088,-0.065 0.203,-0.053 0.255,0.022Zm-0.666,1.575c0.044,0.063 0.019,0.157 -0.057,0.21c-0.075,0.055 -0.175,0.044 -0.219,-0.019c-0.044,-0.063 -0.019,-0.157 0.059,-0.21c0.077,-0.052 0.173,-0.044 0.217,0.019Zm13.071,-12.161c0.062,0.099 0.032,0.231 -0.066,0.294c-0.101,0.071 -0.235,0.055 -0.299,-0.037c-0.064,-0.094 -0.036,-0.227 0.063,-0.297c0.102,-0.07 0.236,-0.052 0.302,0.04Zm-1.594,1.036c0.064,0.092 0.035,0.226 -0.064,0.295c-0.103,0.07 -0.235,0.055 -0.3,-0.04c-0.064,-0.092 -0.035,-0.224 0.063,-0.295c0.1,-0.071 0.236,-0.051 0.301,0.04Zm-1.588,1.092c0.022,0.033 0.034,0.072 0.034,0.111c0,0.067 -0.033,0.129 -0.089,0.166c-0.088,0.065 -0.214,0.045 -0.279,-0.043c-0.021,-0.033 -0.033,-0.071 -0.033,-0.11c0,-0.067 0.034,-0.13 0.091,-0.167c0.034,-0.025 0.075,-0.038 0.117,-0.038c0.063,0 0.122,0.03 0.159,0.081Zm1.678,-2.495c0.063,0.092 0.033,0.224 -0.066,0.294c-0.1,0.069 -0.235,0.053 -0.299,-0.04c-0.065,-0.091 -0.036,-0.226 0.063,-0.295c0.102,-0.069 0.237,-0.052 0.302,0.041Zm-1.38,0.846c0.064,0.092 0.041,0.219 -0.05,0.284c-0.092,0.063 -0.22,0.041 -0.285,-0.05c-0.018,-0.031 -0.028,-0.067 -0.028,-0.103c0,-0.113 0.093,-0.205 0.205,-0.205c0.061,0 0.119,0.027 0.158,0.074Zm-1.44,0.928c0.022,0.033 0.034,0.071 0.034,0.11c0,0.067 -0.034,0.129 -0.09,0.166c-0.094,0.063 -0.219,0.046 -0.279,-0.042c-0.063,-0.088 -0.037,-0.212 0.056,-0.277c0.088,-0.065 0.214,-0.045 0.279,0.043Zm28.76,20.046c0.001,-0.588 0.484,-1.071 1.072,-1.071c0.588,0 1.072,0.484 1.072,1.072c0,0.588 -0.484,1.072 -1.072,1.072c-0.588,-0.001 -1.071,-0.485 -1.072,-1.073Zm-23.228,0c0,0 0,-0.001 0,-0.001c0,-0.587 0.483,-1.07 1.07,-1.07c0,0 0.001,0 0.001,0c0.588,0 1.072,0.484 1.072,1.072c0,0.588 -0.484,1.072 -1.072,1.072c-0.588,-0.001 -1.071,-0.484 -1.071,-1.072c0,0 0,-0.001 0,-0.001Z" style="fill:#fff;fill-rule:nonzero;"/></g></svg>