<?xml version="1.0" encoding="UTF-8" standalone="no"?><!DOCTYPE svg PUBLIC "-//W3C//DTD SVG 1.1//EN"
        "http://www.w3.org/Graphics/SVG/1.1/DTD/svg11.dtd">
<svg width="100%" height="100%" viewBox="0 0 700 702" version="1.1" xmlns="http://www.w3.org/2000/svg"
     xml:space="preserve"
     style="fill-rule:evenodd;clip-rule:evenodd;stroke-linejoin:round;stroke-miterlimit:2;"><g><g><path d="M388.111,226.4c0.349,-1.199 0.744,-2.562 1.151,-3.975c1.186,-4.119 6.2,-20.485 11.127,-36.32c4.927,-15.836 8.968,-29.12 8.968,-29.482c0,-1.068 -3.179,-2.791 -12.297,-6.666c-27.915,-11.866 -47.267,-16.074 -82.058,-17.841c-4.199,-0.213 -7.618,-0.602 -7.618,-0.867c0,-1.224 17.576,-3.37 34.191,-4.175c23.694,-1.147 46.927,1.053 66.522,6.298c3.059,0.818 6.026,1.476 6.658,1.476c1.226,0 2.358,-1.499 10.181,-13.496c2.583,-3.959 6.544,-9.438 8.804,-12.177c2.277,-2.759 4.737,-5.753 5.519,-6.718l1.409,-1.739l-4.078,-2.046c-5.39,-2.703 -28.793,-13.04 -36.291,-16.029c-17.573,-7.006 -49.006,-14.831 -67.122,-16.709c-12.116,-1.256 -27.314,-2.43 -31.791,-2.457c-7.205,-0.044 -6.958,-0.906 0.66,-2.303c6.238,-1.144 21.347,-3.37 26.333,-3.879c4.8,-0.49 34.73,-0.357 45.287,0.202c28.314,1.498 53.626,7.205 85.058,19.179l10.677,4.067l6.418,-2.416c18.062,-6.799 32.271,-9.1 50.506,-8.181c47.688,2.406 89.931,37.421 101.58,84.197c2.672,10.731 3.088,14.396 3.063,26.993c-0.025,13.136 -0.785,18.937 -3.959,30.232c-4.923,17.515 -13.15,33.095 -24.138,45.707c-6.729,7.726 -12.423,11.913 -27.779,20.424c-31.008,17.188 -80.637,43.212 -96.951,51.011c-8.306,-48.638 -43.671,-88.097 -90.03,-102.31Z" style="fill:#0f9d58;fill-rule:nonzero;"/><path
        d="M221.852,372.678c8.266,48.502 43.439,87.881 89.594,102.214c-1.306,4.537 -3.341,11.373 -5.035,16.86c-1.475,4.775 -5.784,18.655 -9.554,30.772c-3.77,12.117 -6.868,22.291 -6.868,22.554c0,1.284 19.315,9.483 32.391,13.751c19.419,6.337 31.672,8.548 55.245,9.968c7.978,0.481 14.651,1.01 14.816,1.174c0.495,0.496 -4.258,1.481 -11.576,2.401c-31.192,3.923 -61.888,2.568 -87.097,-3.845c-5.039,-1.281 -9.543,-2.199 -9.987,-2.035c-0.442,0.164 -1.738,1.8 -2.851,3.599c-7.79,12.597 -11.956,18.436 -18.744,26.273c-1.61,1.86 -2.776,3.708 -2.61,4.139c0.449,1.17 33.292,15.893 44.809,20.087c18.895,6.882 44.287,12.925 62.083,14.774c10.258,1.066 26.084,2.13 34.491,2.321c5.579,0.126 5.648,0.144 3.299,0.898c-3.44,1.102 -17.695,3.491 -28.192,4.723c-11.373,1.336 -45.288,1.537 -56.685,0.336c-27.892,-2.939 -50.395,-8.209 -74.56,-17.462c-14.576,-5.582 -14.576,-5.582 -27.532,-0.988c-13.67,4.847 -17.516,5.421 -36.171,5.398c-23.273,-0.029 -31.769,-1.82 -49.186,-10.372c-33.879,-16.633 -55.544,-45.208 -62.153,-81.978c-1.661,-9.238 -1.81,-25.805 -0.314,-34.791c3.824,-22.974 12.046,-41.339 25.912,-57.884c7.861,-9.379 16.58,-16.139 30.136,-23.366c32.589,-17.376 88.184,-45.946 96.339,-49.521Z"
        style="fill:#ea4335;fill-rule:nonzero;"/><path
        d="M474.249,389.038c4.485,1.234 12.125,3.535 22.684,6.834c30.772,9.616 46.181,14.302 47.028,14.302c1.841,0 11.664,-23.513 15.938,-38.149c4.836,-16.563 6.782,-28.613 8.058,-49.907c0.459,-7.678 0.972,-14.111 1.137,-14.276c0.91,-0.911 3.049,14.876 4.069,30.052c0.775,11.517 0.444,31.804 -0.679,41.689c-1.051,9.237 -2.907,19.446 -5.106,28.072l-2.063,8.098l1.35,1.439c0.745,0.796 4.168,3.229 7.647,5.437c7.798,4.947 13.826,9.33 20.275,14.74c2.759,2.315 5.079,4.07 5.204,3.937c0.406,-0.433 9.961,-21.114 12.72,-27.533c8.892,-20.689 14.607,-38.869 18.761,-59.684c2.825,-14.156 5.406,-39.504 5.452,-53.565c0.024,-7.078 0.492,-7.106 2.001,-0.12c4.098,18.972 6.042,48.827 4.608,70.781c-2.142,32.811 -8.052,59.168 -20.028,89.316l-3.645,9.177l3.675,10.917c5.939,17.641 6.46,20.755 6.438,38.45c-0.029,23.034 -2.041,32.413 -10.695,49.847c-7.087,14.276 -14.265,24.064 -24.791,33.805c-7.9,7.31 -14.996,12.118 -25.673,17.39c-19.647,9.702 -29.692,11.787 -54.225,11.255c-12.537,-0.272 -14.843,-0.481 -20.155,-1.825c-14.516,-3.675 -28.976,-9.97 -40.189,-17.498c-11.997,-8.054 -19.331,-15.354 -25.004,-24.892c-10.566,-17.763 -47.805,-88.221 -57.433,-108.204c48.746,-8.169 88.333,-43.504 102.641,-89.885Z"
        style="fill:#fbbc04;fill-rule:nonzero;"/><path
        d="M225.766,312.342l-4.758,-1.381c-5.114,-1.485 -15.776,-4.724 -23.694,-7.198c-7.918,-2.474 -20.604,-6.402 -28.192,-8.728l-13.797,-4.229l-1.051,1.38c-1.59,2.087 -8.377,18.355 -11.787,28.252c-6.737,19.555 -9.623,34.971 -10.859,58.005c-0.36,6.718 -0.819,12.913 -1.016,13.736l-0.36,1.5l-0.549,-1.8c-2.243,-7.362 -4.437,-38.269 -3.852,-54.285c0.606,-16.597 2.182,-27.473 6.455,-44.568c1.305,-5.219 2.303,-9.592 2.205,-9.658c-0.099,-0.065 -1.68,-0.785 -3.479,-1.584c-4.709,-2.09 -17.875,-11.01 -24.714,-16.742c-3.179,-2.665 -6.027,-4.827 -6.358,-4.827c-1.294,0 -18.276,38.809 -22.336,51.046c-5.387,16.236 -10.617,39.469 -12.828,56.985c-0.523,4.143 -1.202,12.356 -1.517,18.355c-0.743,14.156 -1.283,19.346 -1.852,17.815c-0.56,-1.508 -3.38,-18.235 -4.186,-24.833c-0.981,-8.025 -1.41,-43.909 -0.668,-55.785c1.484,-23.754 8.056,-52.186 18.564,-80.319l4.549,-12.177l-3.403,-10.017c-6.381,-18.789 -7.321,-24.833 -6.859,-44.088c0.235,-9.777 0.597,-14.007 1.593,-18.595c3.748,-17.275 12.257,-35.019 23.272,-48.527c4.854,-5.953 15.389,-15.794 21.807,-20.37c13.36,-9.527 32.991,-17.485 48.347,-19.6c6.161,-0.848 29.392,-0.306 36.11,0.843c23.094,3.948 45.347,15.372 60.331,30.969c6.335,6.594 7.67,8.458 13.488,18.835c19.096,34.059 45.609,85.218 53.087,101.914c-48.3,8.457 -87.464,43.616 -101.693,89.676Z"
        style="fill:#4285f4;fill-rule:nonzero;"/><circle cx="350" cy="350.714" r="80" style="fill:#fff;"/></g></g></svg>